<svg width="100" height="100" viewBox="0 0 100 100" fill="none" xmlns="http://www.w3.org/2000/svg">
<g clip-path="url(#clip0_272_1541)">
<path d="M51.5021 18.232L51.6041 18.282L51.6821 18.322L51.8501 18.412L51.9581 18.47L52.1881 18.596L52.3261 18.67L52.6141 18.83L52.7761 18.92L53.1181 19.108L53.3061 19.214L54.1061 19.66L54.5661 19.918L55.5261 20.458L56.0541 20.756L57.1381 21.368L57.7141 21.696L58.8861 22.36L59.4921 22.704L60.7161 23.4L61.3341 23.754L63.8141 25.17L64.9921 25.846L66.1521 26.512L66.7001 26.826L67.7661 27.442L68.2541 27.722L69.1921 28.266L69.6001 28.504L69.9981 28.736L70.1781 28.842L70.5281 29.048L70.6841 29.14L70.9821 29.316L71.1121 29.392L71.3541 29.536L71.4521 29.596L71.6341 29.708L71.7001 29.75L71.8181 29.824L71.8501 29.846L72.4001 30.228V35.914L72.3961 37.056L72.3901 37.782L72.3861 38.122L72.3761 38.784L72.3701 39.088L72.3581 39.672L72.3501 39.93L72.3341 40.42L72.3241 40.626L72.3061 41.006L72.2961 41.152L72.2761 41.408L72.2641 41.484L72.2421 41.6H72.2301L72.0901 41.538L71.8961 41.44L71.7561 41.364L71.4421 41.194L71.2481 41.086L70.8301 40.854L70.5881 40.718L70.0821 40.434L69.8001 40.274L69.2181 39.944L68.9041 39.764L68.2621 39.398L67.9241 39.202L67.2361 38.806L66.8801 38.6L65.8361 37.998L65.1701 37.614L64.8561 37.436L64.2441 37.086L63.9621 36.926L63.4181 36.618L63.1761 36.482L62.7161 36.222L62.5201 36.114L62.1561 35.912L62.0161 35.836L61.7641 35.702L61.6841 35.662L61.5581 35.6H61.5481L61.5181 35.73L61.5001 35.94L61.4921 36.102L61.4781 36.46L61.4721 36.688L61.4601 37.178L61.4541 37.466L61.4461 38.068L61.4441 38.406L61.4401 39.104L61.4381 39.484V40.262L61.4401 40.674L61.4441 41.514L61.4481 41.95L61.5001 48.3L72.4061 48.406L72.3001 58.5L66.8501 58.554L61.4001 58.606V77.616L62.2501 77.126L63.9141 76.166L65.0581 75.51L65.6281 75.182L66.7621 74.534L67.3061 74.222L68.3781 73.612L68.8701 73.332L69.8221 72.79L70.2341 72.556L70.6361 72.33L70.8181 72.228L71.1661 72.03L71.3181 71.946L71.6101 71.782L71.7301 71.716L71.9541 71.59L72.0401 71.544L72.1921 71.462L72.2381 71.438L72.3121 71.4H72.3161L72.3421 71.522L72.3561 71.72L72.3621 71.868L72.3741 72.198L72.3781 72.406L72.3861 72.85L72.3901 73.106L72.3961 73.64V73.934L72.4001 74.538V74.858L72.3981 76.188L72.3941 76.874L72.3841 78.252L72.3761 78.902L72.3661 79.542L72.3601 79.84L72.3501 80.424L72.3421 80.688L72.3301 81.194L72.3221 81.41L72.3081 81.818L72.3001 81.978L72.2841 82.266L72.2741 82.36L72.2561 82.508L72.2461 82.522L72.1781 82.574L72.0821 82.636L72.0081 82.682L71.8441 82.78L71.7401 82.842L71.5141 82.974L71.3801 83.052L71.0961 83.216L70.9341 83.31L70.5961 83.504L70.4061 83.61L70.0161 83.832L69.8021 83.952L69.3641 84.2L69.1301 84.332L68.1421 84.886L67.5901 85.192L66.4521 85.828L65.8341 86.17L64.5721 86.868L63.9041 87.236L62.5441 87.986L61.8401 88.372L60.4421 89.138L59.7741 89.502L58.4581 90.22L57.8401 90.558L56.6321 91.214L56.0801 91.514L55.0101 92.092L54.5361 92.346L54.0741 92.596L53.8601 92.71L53.4441 92.934L53.2541 93.036L52.8861 93.232L52.7221 93.318L52.4081 93.484L52.2721 93.556L52.0141 93.69L51.9081 93.746L51.7121 93.848L51.6361 93.886L51.5041 93.952L51.4621 93.97L51.3961 94H51.3901L51.3781 93.958L51.3721 93.89L51.3681 93.834L51.3601 93.712L51.3581 93.63L51.3501 93.452L51.3481 93.342L51.3341 92.854L51.3281 92.532L51.3161 91.834L51.3101 91.408L51.2981 90.506L51.2921 89.98L51.2821 88.878L51.2781 88.252L51.2681 86.954L51.2641 86.234L51.2541 84.746L51.2501 83.932L51.2421 82.256L51.2401 81.35L51.2321 79.494L51.2301 78.5L51.2241 76.466L51.2201 75.384L51.2161 73.178L51.2141 72.014L51.2101 69.64L51.2081 68.392L51.2061 65.856L51.2041 64.528L51.2021 61.834V60.428V57.58V56.1V53.542V51.888V51.088V49.502V48.734L51.2041 47.214V46.48L51.2061 45.026V44.324L51.2081 42.936V42.266L51.2101 40.942V40.304L51.2121 39.042L51.2141 38.436L51.2161 37.236V36.66L51.2201 35.522V34.976L51.2241 33.898V33.382L51.2281 32.364L51.2301 31.876L51.2321 30.916L51.2341 30.458L51.2381 29.556L51.2401 29.126L51.2441 28.28L51.2461 27.878L51.2501 27.086L51.2521 26.712L51.2561 25.976L51.2601 25.628L51.2641 24.946L51.2661 24.624L51.2781 23.392L51.2821 22.852L51.2941 21.824L51.3021 21.384L51.3141 20.552L51.3221 20.208L51.3361 19.566L51.3441 19.312L51.3601 18.852L51.3701 18.686L51.3861 18.4L51.3961 18.32L51.4161 18.2H51.4261M48.8061 18.342L48.8281 18.422L48.8381 18.482L48.8581 18.612L48.8681 18.7L48.8841 18.886L48.8921 19.004L48.9081 19.254L48.9141 19.404L48.9281 19.724L48.9341 19.91L48.9441 20.304L48.9501 20.53L48.9581 21.004L48.9621 21.274L48.9701 21.834L48.9741 22.148L48.9801 22.802L48.9821 23.164L48.9881 23.916L48.9901 24.332L48.9921 25.188L48.9941 25.658L48.9961 26.624L48.9981 27.152L49.0001 28.236V28.824V30.03V43.206L44.0501 43.154L39.1001 43.1L39.0461 39.33L39.0281 38.194L39.0141 37.566L39.0061 37.31L38.9901 36.838L38.9801 36.654L38.9601 36.316L38.9461 36.19L38.9181 35.968L38.9021 35.894L38.8641 35.766L38.8401 35.73L38.7921 35.676L38.7621 35.672H38.7001L38.6621 35.686L38.4681 35.786L38.2201 35.922L38.0401 36.022L37.6481 36.24L37.4061 36.378L36.8881 36.67L36.5901 36.84L35.9661 37.196L35.6221 37.392L34.9101 37.8L34.5261 38.02L33.7441 38.47L33.3321 38.708L32.4981 39.188L32.0681 39.438L25.8001 43.064V48.4H49.0001V71.2L48.9981 74.3L48.9961 75.78L48.9941 77.248V77.96L48.9901 79.37L48.9881 80.052L48.9841 81.398L48.9821 82.044L48.9761 83.316L48.9741 83.922L48.9681 85.116L48.9661 85.678L48.9601 86.782L48.9561 87.298L48.9481 88.306L48.9461 88.772L48.9381 89.676L48.9341 90.086L48.9261 90.88L48.9221 91.232L48.9121 91.904L48.9081 92.194L48.9001 92.74L48.8941 92.962L48.8861 93.372L48.8801 93.524L48.8701 93.792L48.8661 93.87L48.8561 93.988H48.8501L48.7501 93.94L48.5981 93.862L48.4841 93.8L48.2261 93.664L48.0601 93.574L47.7041 93.382L47.4901 93.266L47.0381 93.022L46.7801 92.882L46.2401 92.59L45.9381 92.426L45.3161 92.086L44.9741 91.902L44.2741 91.52L43.8981 91.314L43.1261 90.892L42.7141 90.668L41.8761 90.21L41.4341 89.968L40.5361 89.476L40.0661 89.218L39.1141 88.698L38.6181 88.426L36.5921 87.314L35.5181 86.724L33.3341 85.526L32.2001 84.902L15.7001 75.828L15.6481 69.914L15.5941 64H25.8001V66.976L25.8041 67.72L25.8101 68.162L25.8141 68.354L25.8241 68.724L25.8321 68.884L25.8481 69.184L25.8581 69.312L25.8781 69.55L25.8921 69.648L25.9201 69.826L25.9361 69.894L26.0061 70.114L26.0501 70.15L26.2681 70.292L26.5361 70.456L26.7241 70.568L27.1361 70.81L27.3861 70.958L27.9141 71.266L28.2161 71.44L28.8401 71.8L29.1801 71.996L29.8761 72.396L30.2441 72.608L31.7601 73.472L32.5361 73.914L34.0901 74.794L34.8161 75.204L35.5301 75.606L35.8641 75.794L36.5141 76.156L36.8061 76.32L37.3661 76.632L37.6061 76.762L38.0561 77.01L38.2301 77.104L38.5461 77.272L38.6441 77.322L38.8021 77.4H38.8141L38.8341 77.356L38.8481 77.286L38.8541 77.23L38.8661 77.102L38.8721 77.02L38.8841 76.84L38.8901 76.73L38.9121 76.242L38.9221 75.924L38.9401 75.24L38.9501 74.83L38.9641 73.966L38.9701 73.47L38.9821 72.44L38.9861 71.866L38.9941 70.68L38.9961 70.036L39.0001 68.712V58.604L27.3501 58.552L15.7001 58.5L15.6481 47.898L15.5961 37.296L21.4481 33.91L23.4521 32.752L24.8481 31.944L25.5701 31.528L28.5141 29.83L30.0241 28.962L33.0541 27.218L34.5401 26.364L36.0181 25.514L36.7401 25.1L38.1661 24.28L38.8541 23.886L40.2081 23.11L40.8501 22.742L42.1101 22.02L42.6961 21.684L43.8381 21.032L44.3581 20.736L45.3601 20.162L45.8001 19.912L46.6421 19.432L46.9941 19.232L47.3341 19.04L47.4841 18.954L47.7761 18.79L47.9021 18.718L48.1401 18.584L48.2381 18.53L48.4221 18.428L48.4921 18.388L48.6161 18.32L48.6561 18.298L48.7221 18.264L48.7301 18.26M84.7261 62.114L84.7001 75.826L79.6601 78.59L78.6461 79.144L78.0001 79.492L77.6961 79.654L77.1021 79.97L76.8301 80.114L76.3021 80.39L76.0701 80.51L75.6241 80.738L75.4361 80.832L75.0861 81.006L74.9521 81.068L74.7101 81.18L74.6361 81.21L74.5181 81.252L74.5101 81.244L74.5001 81.148L74.4921 81L74.4881 80.888L74.4821 80.636L74.4781 80.472L74.4701 80.12L74.4681 79.91L74.4621 79.464L74.4581 79.208L74.4521 78.676L74.4481 78.378L74.4441 77.762L74.4401 77.424L74.4341 76.732L74.4321 76.358L74.4281 75.594L74.4261 75.188L74.4201 74.358L74.4181 73.92L74.4161 73.03L74.4141 72.564L74.4101 71.62L74.4081 71.13L74.4041 69.12L74.4021 68.056L74.4001 65.892V48.4H84.7521M74.6461 31.462L74.8341 31.56L74.9721 31.634L75.2721 31.8L75.4601 31.904L75.8561 32.126L76.0821 32.256L76.5561 32.524L76.8161 32.672L77.3481 32.976L77.6321 33.138L78.7981 33.81L79.4021 34.162L80.6121 34.864L81.1841 35.198L81.7461 35.528L82.0101 35.684L82.5261 35.988L82.7601 36.128L83.2101 36.396L83.4061 36.512L83.7741 36.734L83.9201 36.824L84.1881 36.99L84.2781 37.048L84.4261 37.144L84.4501 37.166L84.6321 37.416L84.6761 37.538L84.6941 37.618L84.7261 37.788L84.7381 37.898L84.7601 38.132L84.7681 38.278L84.7841 38.59L84.7881 38.78L84.7961 39.182L84.7981 39.424L84.8001 39.932V43H74.4001V37.2L74.4021 36.034L74.4061 35.294L74.4081 34.948L74.4141 34.272L74.4181 33.962L74.4281 33.366L74.4321 33.104L74.4421 32.604L74.4481 32.394L74.4601 32.004L74.4661 31.858L74.4801 31.596L74.4861 31.518L74.5021 31.4H74.5081M99.1501 35.276L96.9601 36.532L96.2461 36.936L95.9061 37.126L95.2421 37.496L94.9381 37.664L94.3541 37.988L94.1001 38.126L93.6221 38.384L93.4321 38.484L93.0901 38.664L92.9801 38.718L92.8801 38.764L92.8481 38.778L92.7941 38.8H92.7861L92.7001 38.76L92.5761 38.694L92.4801 38.642L92.2701 38.526L92.1341 38.45L91.8441 38.286L91.6701 38.188L91.3021 37.98L91.0901 37.86L90.6521 37.608L90.4061 37.47L89.9001 37.18L89.6221 37.02L89.0541 36.694L88.7481 36.518L88.1201 36.158L87.7861 35.966L87.1061 35.574L86.7481 35.368L85.2661 34.514L84.4641 34.05L82.8201 33.098L81.9501 32.594L80.1821 31.568L79.2621 31.034L75.7701 29.004L73.5501 27.716L72.4981 27.104L70.4261 25.902L69.4461 25.332L67.5241 24.216L66.6181 23.692L64.8421 22.662L64.0121 22.18L62.3841 21.238L61.6281 20.8L60.1501 19.944L59.4661 19.548L58.1381 18.78L57.5301 18.428L56.3501 17.748L55.8161 17.44L54.7861 16.846L54.3281 16.582L53.4481 16.074L53.0641 15.854L52.3341 15.436L52.0241 15.26L51.4441 14.928L51.2121 14.796L50.7821 14.554L50.6241 14.466L50.3461 14.31L50.2621 14.266L50.1341 14.2H50.1281L50.0741 14.224L49.9981 14.264L49.9401 14.296L49.8101 14.366L49.7261 14.414L49.5441 14.514L49.4361 14.576L49.2041 14.706L49.0701 14.782L48.7901 14.94L48.6341 15.03L47.9581 15.414L47.5521 15.644L46.7001 16.132L46.2141 16.412L45.1981 16.994L44.6341 17.318L43.4681 17.988L42.8321 18.354L41.5301 19.106L40.8301 19.508L39.4021 20.332L38.6441 20.77L37.1041 21.66L36.2961 22.126L34.6561 23.076L33.8021 23.568L32.0741 24.568L31.1821 25.086L29.3821 26.128L28.4581 26.664L26.5941 27.744L25.6441 28.296L21.8001 30.528L19.8341 31.67L17.3681 33.102L15.7961 34.012L15.0601 34.438L13.6201 35.27L12.9621 35.65L12.3141 36.022L12.0081 36.198L11.4061 36.544L11.1241 36.706L10.5741 37.022L10.3201 37.166L9.82606 37.45L9.60006 37.578L9.16406 37.826L8.97006 37.936L8.59806 38.146L8.43806 38.238L8.13406 38.408L8.01006 38.478L7.77806 38.606L7.69006 38.654L7.53606 38.738L7.48806 38.764L7.41406 38.8H7.40806L7.30206 38.758L7.16406 38.69L7.06406 38.64L6.84606 38.526L6.71206 38.454L6.42806 38.302L6.26406 38.212L5.56206 37.828L5.16006 37.606L4.33206 37.144L3.90406 36.904L3.04806 36.422L2.64406 36.192L1.86206 35.744L1.53206 35.552L1.21606 35.368L1.08006 35.288L0.824061 35.136L0.722061 35.074L0.536061 34.96L0.476061 34.92L0.376061 34.852L0.362061 34.838L0.414061 34.764L0.526061 34.67L0.618061 34.604L0.824061 34.458L0.960061 34.368L1.24806 34.178L1.42006 34.068L1.78206 33.838L1.98606 33.712L2.41206 33.45L2.64406 33.31L3.62006 32.726L4.16206 32.41L5.92006 31.384L7.17606 30.648L7.79406 30.284L9.01606 29.564L9.56406 29.24L10.0961 28.924L10.3381 28.782L10.8001 28.506L11.0001 28.386L11.3861 28.158L11.7301 27.956L11.9421 27.83L12.3921 27.568L12.6541 27.414L13.2041 27.092L13.5141 26.912L14.1581 26.538L14.5121 26.332L15.2401 25.908L15.6341 25.68L16.4421 25.21L16.8741 24.96L17.7541 24.45L18.2181 24.18L19.1621 23.632L19.6581 23.346L20.6601 22.766L21.1801 22.464L23.3121 21.232L24.4381 20.58L26.7241 19.26L27.9061 18.578L30.2901 17.202L31.5001 16.504L35.0461 14.46L37.3101 13.154L38.3741 12.54L39.4261 11.932L39.9341 11.64L40.9321 11.064L41.4101 10.788L42.3501 10.246L42.7961 9.98996L43.6701 9.48596L44.0801 9.24796L44.8821 8.78596L45.2541 8.57196L45.9781 8.15396L46.3101 7.96396L46.9501 7.59396L47.2361 7.42796L47.7861 7.11196L48.0241 6.97396L48.4781 6.71196L48.6661 6.60396L49.0161 6.40196L49.1501 6.32396L49.3901 6.18596L49.4681 6.13996L49.5941 6.06796L49.6121 6.05796L49.8201 5.98596H49.9141L49.9741 5.99596L50.1021 6.02396L50.1861 6.05196L50.3641 6.11596L50.4781 6.16396L50.7221 6.26996L50.8721 6.34396L51.1941 6.50196L51.3901 6.60196L51.8041 6.81796L52.0501 6.95196L52.5701 7.23396L52.8761 7.40196L53.5161 7.75796L53.8861 7.96596L54.6601 8.40396L55.1021 8.65596L56.0241 9.17996L56.5461 9.47996L57.6301 10.1L58.2381 10.45L58.8581 10.806L59.1841 10.994L59.8481 11.376L60.2001 11.578L60.9121 11.99L61.2861 12.206L62.0501 12.646L62.4501 12.878L63.2641 13.346L63.6901 13.594L64.5581 14.094L65.0121 14.356L67.7761 15.952L69.4901 16.942L70.2901 17.404L71.8501 18.306L72.5801 18.728L74.0041 19.552L74.6721 19.938L75.9781 20.694L76.5941 21.05L77.8001 21.748L78.3701 22.078L79.4921 22.73L80.0281 23.04L81.0841 23.654L81.5941 23.95L83.5881 25.108L84.5541 25.672L86.4761 26.794L87.4581 27.368L88.4461 27.946L88.9561 28.244L89.9841 28.846L90.5181 29.16L91.6041 29.796L92.1721 30.13L93.3321 30.81L93.9441 31.17L95.1221 31.858L95.8701 32.296L96.2221 32.502L96.9101 32.902L97.2241 33.084L97.8341 33.436L98.1041 33.592L98.6181 33.888L98.8341 34.012L99.2381 34.242L99.3921 34.33L99.6701 34.484L99.7541 34.53L99.8881 34.6H99.8941L99.9061 34.51L99.9121 34.362L99.9161 34.246L99.9221 33.988L99.9261 33.818L99.9321 33.454L99.9361 33.234L99.9421 32.772L99.9441 32.504L99.9501 31.946L99.9541 31.636L99.9601 30.99L99.9621 30.636L99.9661 29.91L99.9701 29.518L99.9741 28.716L99.9761 28.288L99.9801 27.416L99.9821 26.956L99.9861 26.018L99.9881 25.528L99.9901 24.534L99.9921 24.018L99.9961 21.898L99.9981 20.776L100 18.49V34.784L99.1501 35.276Z" fill="#E1E1E1"/>
</g>
<defs>
<clipPath id="clip0_272_1541">
<rect width="100" height="100" fill="white"/>
</clipPath>
</defs>
</svg>
